<?xml version="1.0" standalone="no"?>
<!DOCTYPE svg PUBLIC "-//W3C//DTD SVG 20010904//EN"
 "http://www.w3.org/TR/2001/REC-SVG-20010904/DTD/svg10.dtd">
<svg version="1.0" xmlns="http://www.w3.org/2000/svg"
 width="82.000000pt" height="82.000000pt" viewBox="0 0 82.000000 82.000000"
 preserveAspectRatio="xMidYMid meet">
<metadata>
Created by potrace 1.11, written by Peter Selinger 2001-2013
</metadata>
<g transform="translate(0.000000,82.000000) scale(0.100000,-0.100000)"
fill="#000000" stroke="none">
<path d="M367 793 c18 -2 50 -2 70 0 21 2 7 4 -32 4 -38 0 -55 -2 -38 -4z"/>
<path d="M308 783 c7 -3 16 -2 19 1 4 3 -2 6 -13 5 -11 0 -14 -3 -6 -6z"/>
<path d="M250 770 c-8 -5 -10 -10 -5 -10 6 0 17 5 25 10 8 5 11 10 5 10 -5 0
-17 -5 -25 -10z"/>
<path d="M575 756 c80 -38 133 -83 175 -148 22 -34 40 -57 40 -53 0 15 -58
100 -87 127 -36 34 -142 98 -162 98 -9 0 7 -11 34 -24z"/>
<path d="M184 734 c-21 -14 -52 -38 -67 -52 -28 -27 -87 -112 -87 -127 0 -4
18 19 39 52 34 53 81 97 147 140 11 6 16 12 13 12 -3 1 -24 -11 -45 -25z"/>
<path d="M323 749 c-103 -21 -204 -105 -251 -207 -37 -81 -37 -194 -1 -272
111 -240 434 -294 610 -102 66 71 93 141 93 242 0 77 -3 91 -34 148 -82 154
-244 228 -417 191z"/>
<path d="M15 510 c-4 -17 -5 -34 -2 -36 2 -3 7 10 11 27 8 42 0 50 -9 9z"/>
<path d="M801 494 c0 -11 3 -14 6 -6 3 7 2 16 -1 19 -3 4 -6 -2 -5 -13z"/>
<path d="M813 435 c0 -22 2 -30 4 -17 2 12 2 30 0 40 -3 9 -5 -1 -4 -23z"/>
<path d="M3 425 c0 -22 2 -30 4 -17 2 12 2 30 0 40 -3 9 -5 -1 -4 -23z"/>
<path d="M806 349 c-4 -23 -5 -44 -2 -46 2 -2 7 14 11 37 4 23 5 43 2 46 -2 3
-7 -14 -11 -37z"/>
<path d="M2 360 c0 -14 2 -19 5 -12 2 6 2 18 0 25 -3 6 -5 1 -5 -13z"/>
<path d="M11 314 c0 -11 3 -14 6 -6 3 7 2 16 -1 19 -3 4 -6 -2 -5 -13z"/>
<path d="M26 270 c9 -35 58 -111 91 -141 58 -52 65 -52 12 1 -30 30 -68 80
-83 110 -15 30 -24 44 -20 30z"/>
<path d="M770 238 c-14 -28 -43 -71 -64 -97 -35 -40 -36 -42 -7 -16 34 31 104
141 99 156 -2 4 -14 -15 -28 -43z"/>
<path d="M639 83 c-13 -16 -12 -17 4 -4 9 7 17 15 17 17 0 8 -8 3 -21 -13z"/>
<path d="M190 75 c0 -7 61 -37 66 -33 2 3 -12 12 -31 21 -19 9 -35 15 -35 12z"/>
<path d="M580 55 c-14 -8 -20 -14 -15 -14 6 0 21 6 35 14 14 8 21 14 15 14 -5
0 -21 -6 -35 -14z"/>
<path d="M510 30 c-21 -7 -21 -8 -5 -9 11 0 27 4 35 9 18 11 5 11 -30 0z"/>
<path d="M363 13 c9 -2 23 -2 30 0 6 3 -1 5 -18 5 -16 0 -22 -2 -12 -5z"/>
<path d="M423 13 c9 -2 23 -2 30 0 6 3 -1 5 -18 5 -16 0 -22 -2 -12 -5z"/>
</g>
</svg>
